# xmcd
#
# Track frame offsets:
#	150
#	10879
#	21243
#	32801
#	51325
#	81018
#	99538
#	111493
#	123800
#	132568
#	143250
#	163313
#	173280
#	185281
#	195932
#	211725
#	224350
#	231850
#
# Disc length: 3367 seconds
#
# Revision: 1
# Processed by: cddbd v1.5.1PL0 Copyright (c) Steve Scherf et al.
# Submitted via: audiograbber 1.83.01
#
DISCID=ee0d2512
DTITLE=Various Artist - Pure Pickin' Classic Bluegrass Instrumentals
DYEAR=2004
DGENRE=Bluegrass
TTITLE0=Flatt and Scruggs - Foggy Mountain Breakdown
TTITLE1=The Stanley Brothers - Clinch Mountain Backstep
TTITLE2=Alison Krauss and Union Station - Cluck Old Hen
TTITLE3=Fiddle Fever - Ashokan Farewell
TTITLE4=Tony Rice - Jerusalem Ridge
TTITLE5=Ricky Scaggs - Get Up John
TTITLE6=Doc and Merle Watson - Black Mountain Rag
TTITLE7=J.D. Crowe And The New South - Nashville Skyline Rag
TTITLE8=Arthur Smith and Don Reno - Fuedin' Banjos
TTITLE9=Bill Monroe - Dusty Miller
TTITLE10=Bela Fleck - Blue Mountain Hop
TTITLE11=The Nitty Gritty Dirt Band - Orange Blossom Special
TTITLE12=Bluegrass Album Band - Wheel Hoss
TTITLE13=Reno and Smiley - Charlotte Breakdown
TTITLE14=The Del McCoury Band - Baltimore Johnny
TTITLE15=The Kentucky Colonels - Nine Pound Hammer
TTITLE16=Vassar Clements - Turkey In The Straw
TTITLE17=Mark O'Connor - Gold Rush
EXTD=
EXTT0=
EXTT1=
EXTT2=
EXTT3=
EXTT4=
EXTT5=
EXTT6=
EXTT7=
EXTT8=
EXTT9=
EXTT10=
EXTT11=
EXTT12=
EXTT13=
EXTT14=
EXTT15=
EXTT16=
EXTT17=
PLAYORDER=
